<?xml version="1.0" encoding="UTF-8" standalone="no"?>
<svg
   width="512"
   height="512"
   viewBox="0 0 512 512"
   fill="none"
   version="1.1"
   id="svg4"
   sodipodi:docname="Clarivate-icon.svg"
   inkscape:version="1.3 (0e150ed6c4, 2023-07-21)"
   xmlns:inkscape="http://www.inkscape.org/namespaces/inkscape"
   xmlns:sodipodi="http://sodipodi.sourceforge.net/DTD/sodipodi-0.dtd"
   xmlns="http://www.w3.org/2000/svg"
   xmlns:svg="http://www.w3.org/2000/svg">
  <defs
     id="defs4" />
  <sodipodi:namedview
     id="namedview4"
     pagecolor="#ffffff"
     bordercolor="#999999"
     borderopacity="1"
     inkscape:showpageshadow="0"
     inkscape:pageopacity="0"
     inkscape:pagecheckerboard="0"
     inkscape:deskcolor="#d1d1d1"
     inkscape:zoom="1.0025"
     inkscape:cx="314.71322"
     inkscape:cy="305.23691"
     inkscape:window-width="1920"
     inkscape:window-height="991"
     inkscape:window-x="-9"
     inkscape:window-y="-9"
     inkscape:window-maximized="1"
     inkscape:current-layer="svg4" />
  <rect
     style="opacity:0.21;fill:#ffffff;stroke-width:2.13205"
     id="rect4"
     width="512"
     height="512"
     x="0"
     y="0" />
  <path
     d="m 195.98943,49.157511 c -8.05195,14.092244 -23.78065,49.322861 -23.78065,59.892049 27.30371,5.28459 83.67265,25.5422 134.757,51.96517 40.86749,21.13837 101.28794,80.14965 115.38018,96.00343 11.44994,-9.68842 31.00292,-34.87831 38.75365,-47.56134 7.75072,-12.68301 18.49605,-34.34985 22.89988,-54.60745 -14.973,-15.26719 -45.79976,-52.84593 -117.1417,-94.241907 C 319.02169,32.850312 260.57942,14.514007 228.57772,6 c -9.68841,8.807655 -24.53634,29.065261 -32.58829,43.157511 z"
     fill="#6719fa"
     id="path2"
     style="stroke-width:1.76153" />
  <path
     d="m 462.28336,305.88303 c -8.39016,-13.89319 -30.70523,-43.71943 -39.9374,-48.86487 -17.90947,21.27577 -63.84663,59.58555 -111.79722,91.34419 -38.36083,25.4048 -120.27371,52.03386 -140.98226,56.62441 2.88892,14.71759 16.32233,41.47878 23.6274,54.42426 7.30506,12.9455 20.99919,32.87898 36.54998,46.58898 20.62398,-5.64747 68.45831,-14.27721 139.34931,-56.43946 47.53487,-28.2708 92.00468,-70.39254 115.02083,-94.19962 -2.97524,-12.75173 -13.44224,-35.58293 -21.83064,-49.47789 z"
     fill="#1bc407"
     id="path3"
     style="stroke-width:1.76153" />
  <path
     d="m 104.49559,414.13088 c 16.4791,-0.0705 55.43886,-4.12199 64.73092,-9.48585 -9.21808,-26.69601 -20.03035,-86.55459 -22.73782,-144.89473 -2.16668,-46.67177 18.93644,-130.25993 25.72009,-150.70074 -14.3318,-5.15248 -46.30885,-9.068359 -61.39459,-9.447091 -15.087491,-0.378723 -39.592132,1.169661 -59.638513,7.578111 -5.819388,20.91818 -23.205684,67.10552 -23.374967,150.86103 -0.113619,56.16113 13.440647,116.86878 22.204431,149.33555 12.662928,4.04976 38.01134,6.82418 54.490449,6.75372 z"
     fill="#000000"
     id="path4"
     style="stroke-width:1.76153" />
</svg>
