<?xml version="1.0" encoding="UTF-8" standalone="no"?>
<!-- Uploaded to: SVG Repo, www.svgrepo.com, Generator: SVG Repo Mixer Tools -->

<svg
   width="512"
   height="512"
   viewBox="0 0 15.36 15.36"
   fill="none"
   version="1.1"
   id="svg1"
   sodipodi:docname="site-svgrepo-com.svg"
   inkscape:version="1.3 (0e150ed6c4, 2023-07-21)"
   xmlns:inkscape="http://www.inkscape.org/namespaces/inkscape"
   xmlns:sodipodi="http://sodipodi.sourceforge.net/DTD/sodipodi-0.dtd"
   xmlns="http://www.w3.org/2000/svg"
   xmlns:svg="http://www.w3.org/2000/svg">
  <defs
     id="defs1" />
  <sodipodi:namedview
     id="namedview1"
     pagecolor="#ffffff"
     bordercolor="#999999"
     borderopacity="1"
     inkscape:showpageshadow="0"
     inkscape:pageopacity="0"
     inkscape:pagecheckerboard="0"
     inkscape:deskcolor="#d1d1d1"
     inkscape:zoom="1.0025"
     inkscape:cx="332.66833"
     inkscape:cy="411.97007"
     inkscape:window-width="1920"
     inkscape:window-height="991"
     inkscape:window-x="-9"
     inkscape:window-y="-9"
     inkscape:window-maximized="1"
     inkscape:current-layer="svg1" />
  <path
     fill-rule="evenodd"
     clip-rule="evenodd"
     d="m 9.970176,13.52448 c 0.348672,-0.5376 0.698112,-1.2288 0.949248,-2.11584 0.57984,0.22272 0.977664,0.488448 1.221888,0.698112 a 6.283776,6.283776 0 0 1 -2.199552,1.41696 h 0.02842 z m -6.7584,-1.42464 c 0.258048,-0.209664 0.64896,-0.46848 1.2288,-0.69888 0.258048,0.893952 0.593664,1.585152 0.949248,2.122752 A 6.2976,6.2976 0 0 1 3.2256,12.09984 Z m 8.168448,-5.117952 c -0.0215,-0.62208 -0.08448,-1.243392 -0.18816,-1.857024 0.768,-0.279552 1.326336,-0.6144 1.717248,-0.9216 a 6.248448,6.248448 0 0 1 0.984576,2.778624 z M 4.48896,3.756288 a 4.558848,4.558848 0 0 1 -1.137408,-0.6144 6.2976,6.2976 0 0 1 2.038272,-1.3056 c -0.327936,0.488448 -0.64896,1.116672 -0.907776,1.92 h 0.00768 z m 5.481216,-1.92 a 6.25536,6.25536 0 0 1 2.038272,1.3056 4.61568,4.61568 0 0 1 -1.137408,0.6144 7.35744,7.35744 0 0 0 -0.907776,-1.92 z M 9.8304,5.466624 c 0.06912,0.4608 0.139776,0.956928 0.1536,1.515264 H 5.376 C 5.396736,6.423552 5.44512,5.920512 5.515776,5.466624 c 1.42464,0.256512 2.883072,0.256512 4.307712,0 z M 7.68,4.25856 C 6.98112,4.25856 6.36672,4.203264 5.84448,4.119552 6.402048,2.401536 7.268352,1.710336 7.68,1.466112 8.077824,1.710336 8.95104,2.408448 9.509376,4.119552 A 11.55072,11.55072 0 0 1 7.68,4.25856 Z M 2.443776,4.203264 a 6.16704,6.16704 0 0 0 1.72416,0.9216 14.106624,14.106624 0 0 0 -0.18816,1.857024 H 1.437696 A 6.24384,6.24384 0 0 1 2.450688,4.203264 h -0.00768 z m -0.9984,4.174848 h 2.5344 c 0.027648,0.600576 0.06912,1.152 0.1536,1.65504 a 5.899776,5.899776 0 0 0 -1.77408,0.976896 6.22848,6.22848 0 0 1 -0.9216,-2.631936 z M 7.68,9.495552 c -0.83712,0 -1.556736,0.06912 -2.18496,0.181248 A 12.98688,12.98688 0 0 1 5.376,8.37888 H 9.984 C 9.96326,8.845824 9.92794,9.28512 9.87264,9.6768 A 11.817984,11.817984 0 0 0 7.68,9.48864 Z m 0,4.398336 C 7.26144,13.642752 6.33984,12.895488 5.780736,11.031552 A 10.82496,10.82496 0 0 1 7.68,10.891776 c 0.73344,0 1.361664,0.04838 1.906176,0.139776 -0.558336,1.884672 -1.479936,2.6112 -1.899264,2.862336 z m 5.319936,-2.890752 a 5.862912,5.862912 0 0 0 -1.773312,-0.976896 13.7856,13.7856 0 0 0 0.1536,-1.648128 h 2.54208 a 6.22848,6.22848 0 0 1 -0.9216,2.625024 z M 7.68,0 C 3.438336,0 0,3.438336 0,7.68 c 0,4.241664 3.438336,7.68 7.68,7.68 4.241664,0 7.68,-3.438336 7.68,-7.68 C 15.36,3.438336 11.921664,0 7.68,0 Z"
     fill="#000000"
     id="path1"
     style="stroke-width:0.768;fill:#999999" />
</svg>
